<svg id="Layer_2" data-name="Layer 2" xmlns="http://www.w3.org/2000/svg" viewBox="0 0 1000 1000"><defs><style>.cls-1{fill:#231f20;}.cls-2{fill:#69c9ca;}.cls-3{fill:#3499cc;}.cls-4{fill:#46bc91;}.cls-5{fill:#fbad3a;}.cls-6{fill:#c33;}.cls-7{fill:#f2683f;}</style></defs><path class="cls-1" d="M704,645.57a238.19,238.19,0,0,1-188.21,91.94c-131.77,0-238.6-106.83-238.6-238.6S384.05,260.3,515.82,260.3A238.19,238.19,0,0,1,704,352.24H857.54C800.3,219.61,668.36,126.77,514.73,126.77,308.6,126.77,141.5,293.87,141.5,500S308.6,873.23,514.73,873.23c154.48,0,287-93.86,343.77-227.66Z"/><path class="cls-2" d="M605.57,610.55a107.27,107.27,0,0,0-34-23.35l-59,58.37H704l19-19C687,640.16,640.92,645.89,605.57,610.55Z"/><path class="cls-3" d="M517.49,598.26a6.9,6.9,0,0,0-1.67,3.53S516.39,600.48,517.49,598.26Z"/><path class="cls-3" d="M640.6,571.14c-10.37-11-20.22-18.37-29.49-23L571.6,587.2a107.27,107.27,0,0,1,34,23.35c35.35,35.34,81.42,29.61,117.46,16l13.34-13.34C710.41,616.27,676.46,609.06,640.6,571.14Z"/><path class="cls-4" d="M704.08,538.31c-9.27,27.8-38.93,27.34-69.61-13.31l-23.36,23.11c9.27,4.66,19.12,12.07,29.49,23,35.86,37.92,69.81,45.13,95.77,42.08L773,576.55C755.54,545.88,711.43,516.26,704.08,538.31Z"/><path class="cls-5" d="M634.47,525c30.68,40.65,60.34,41.11,69.61,13.31,7.35-22,51.46,7.57,69,38.24l35.36-35.36a74.15,74.15,0,0,1-10.19-7.26c-17.52-15.32,17.51-32.84-25.17-69.73s-33.94,47.84-81,16.29c-21.33-14.31-41.09-12.73-56.34-6.75l25.28,25Z"/><path class="cls-6" d="M654,390.87c51.39,22,85.6,23.2,100.13,11.14l-50.17-50.17H512.51l73,72.19C596.39,400.28,617.14,375.11,654,390.87Z"/><path class="cls-7" d="M692.07,480.49c47,31.55,38.29-53.19,81-16.29s7.65,54.41,25.17,69.73a74.15,74.15,0,0,0,10.19,7.26L850.57,499h.56l-.28-.28.36-.36h-.72L754.11,402c-14.53,12.06-48.74,10.84-100.13-11.14-36.84-15.76-57.59,9.41-68.49,33.16l50.24,49.71C651,467.76,670.74,466.18,692.07,480.49Z"/></svg>