<svg id="Layer_4" data-name="Layer 4" xmlns="http://www.w3.org/2000/svg" viewBox="0 0 478.83 601.35"><defs><style>.cls-1{fill:#f9b221;}.cls-2{fill:#c07a21;}.cls-3{fill:#feddb3;}.cls-4{fill:#e2bf7f;}.cls-5{fill:#d7d7d7;}.cls-6{fill:#a9a9a9;}.cls-7{fill:#b1def1;}.cls-8{fill:#384797;}.cls-9{fill:#55b364;}.cls-10{fill:#f49739;}.cls-11{fill:#cd3333;}.cls-12{fill:#bfbebe;}.cls-13{fill:#e5e4e4;}.cls-14{fill:#c66;}.cls-15{fill:#ee9f9f;}.cls-16,.cls-18{fill:none;stroke:#1d1d1b;stroke-miterlimit:10;stroke-width:15px;}.cls-17{fill:#1d1d1b;}.cls-18{stroke-linecap:round;}</style></defs><polygon class="cls-1" points="192.96 451.65 239.41 419.6 282.91 451.65 282.91 193.86 192.96 193.86 192.96 451.65"/><path class="cls-2" d="M496.73,433.79H453.3a111.73,111.73,0,0,1,26.5,61l9.71,90,9.31,0Z" transform="translate(-258.64 -201.33)"/><polygon class="cls-3" points="201.58 453.38 237.94 425.46 279.81 453.38 256.86 511.73 222.94 511.73 201.58 453.38"/><path class="cls-4" d="M498.13,634s-31,27.57-.08,67.75l-16.47,5.31L460.22,654.7Z" transform="translate(-258.64 -201.33)"/><path class="cls-5" d="M378.71,430.17s43.42,137,63.58,184l-72.37-55.32Z" transform="translate(-258.64 -201.33)"/><path class="cls-6" d="M420.34,605.42s-80.4-25.33-89.19-175.25V588.88l86.34,31Z" transform="translate(-258.64 -201.33)"/><path class="cls-7" d="M268.6,421.38s73-34.12,73.22-64.1l-73.22-54.8Z" transform="translate(-258.64 -201.33)"/><path class="cls-8" d="M348.73,357.28s15.5-39.29,12.92-50.66H399.9l-2.67-21.15-38.17-80.18-90.46,3.54v93.65Z" transform="translate(-258.64 -201.33)"/><path class="cls-9" d="M401.07,287.32s86.49-159.23,193.1,0l42-70.77-275.43-7.72Z" transform="translate(-258.64 -201.33)"/><polygon class="cls-10" points="377.54 7.5 335.52 91.88 344.23 105.29 371.65 105.29 391.33 158.65 470.46 97.02 470.46 10.86 377.54 7.5"/><path class="cls-11" d="M653.9,361.93s49.63,59.11,80,59.45L729.1,308Z" transform="translate(-258.64 -201.33)"/><polygon class="cls-12" points="192.96 193.86 280.84 192.66 278.77 158.65 194.66 158.65 192.96 193.86"/><path class="cls-13" d="M457.8,360s9.31,38.15,86.85,28.84L537.42,360Z" transform="translate(-258.64 -201.33)"/><path class="cls-14" d="M453.3,353.66s-2.17-72.87,45.36-69.26,42.89,72.88,42.89,72.88Z" transform="translate(-258.64 -201.33)"/><path class="cls-15" d="M519.84,352.8s-2.76-62-37.91-63.07c0,0,62-17.58,55.14,59.28Z" transform="translate(-258.64 -201.33)"/><path class="cls-16" d="M266.14,222.17V531.79a206.08,206.08,0,0,0,33.21,112.68c31.73,48.61,91.21,111.54,198.7,150.24,106.22-38.24,165.57-100.15,197.57-148.52A207.34,207.34,0,0,0,730,531.76V222.17a13.35,13.35,0,0,0-13.35-13.34H279.49A13.35,13.35,0,0,0,266.14,222.17Z" transform="translate(-258.64 -201.33)"/><path class="cls-16" d="M496.58,283.87h0a45,45,0,0,0-45,45V653l46.45,100.29L541.55,653V328.85A45,45,0,0,0,496.58,283.87Z" transform="translate(-258.64 -201.33)"/><line class="cls-16" x1="282.91" y1="193.86" x2="192.96" y2="193.86"/><line class="cls-16" x1="282.91" y1="155.95" x2="192.96" y2="155.95"/><polyline class="cls-16" points="192.96 232.46 239.41 232.46 240.03 383.41"/><polyline class="cls-16" points="192.96 451.65 239.41 421.67 282.91 451.65"/><polygon class="cls-17" points="215.56 500.45 261.75 500.45 239.41 551.95 215.56 500.45"/><path class="cls-18" d="M327.87,433.79V589.91l122.26,40.87a.29.29,0,0,0,.28-.5l-80.49-66.56V415.56a2,2,0,0,1,3.28-1.6l44.28,34.65" transform="translate(-258.64 -201.33)"/><path class="cls-18" d="M664.19,433.79V589.91L541.93,630.78a.29.29,0,0,1-.27-.5l80.48-66.56V415.56a2,2,0,0,0-3.28-1.6l-44.28,34.65" transform="translate(-258.64 -201.33)"/><path class="cls-16" d="M266.14,421.38s95.51-36.18,95.51-114.76H399.9s-3.06-83.75,98.76-83.75" transform="translate(-258.64 -201.33)"/><line class="cls-16" x1="100.42" y1="7.5" x2="140.42" y2="93.01"/><line class="cls-16" x1="7.5" y1="97.02" x2="86.63" y2="158.65"/><path class="cls-16" d="M729.1,421.38s-95.51-36.18-98.81-114.76H592s6.35-83.75-95.46-83.75" transform="translate(-258.64 -201.33)"/><line class="cls-16" x1="377.54" y1="7.5" x2="333.27" y2="97.02"/><line class="cls-16" x1="470.46" y1="97.02" x2="391.33" y2="158.65"/></svg>